<mxfile host="app.diagrams.net" agent="Mozilla/5.0 (Windows NT 10.0; Win64; x64) AppleWebKit/537.36 (KHTML, like Gecko) Chrome/127.0.0.0 Safari/537.36" version="24.7.5">
  <diagram name="페이지-1" id="S3CkIOjQWecWKmC-TiUt">
    <mxGraphModel grid="1" page="1" gridSize="10" guides="1" tooltips="1" connect="1" arrows="1" fold="1" pageScale="1" pageWidth="827" pageHeight="1169" math="0" shadow="0">
      <root>
        <mxCell id="0" />
        <mxCell id="1" parent="0" />
        <UserObject label="total" link="&#xa;&lt;table data-sheets-baot=&quot;1&quot; data-sheets-root=&quot;1&quot; style=&quot;table-layout:fixed;font-size:10pt;font-family:Arial;width:0px;border-collapse:collapse;border:none&quot; border=&quot;1&quot; dir=&quot;ltr&quot; cellpadding=&quot;0&quot; cellspacing=&quot;0&quot; xmlns=&quot;http://www.w3.org/1999/xhtml&quot;&gt;&lt;colgroup&gt;&lt;col width=&quot;127&quot;&gt;&lt;col width=&quot;487&quot;&gt;&lt;/colgroup&gt;&lt;tbody&gt;&lt;tr style=&quot;height:21px;&quot;&gt;&lt;td style=&quot;overflow:hidden;padding:2px 3px 2px 3px;vertical-align:bottom;font-weight:bold;text-align:center;&quot;&gt;택배 예약&lt;/td&gt;&lt;td style=&quot;overflow:hidden;padding:2px 3px 2px 3px;vertical-align:bottom;font-weight:bold;text-align:center;&quot;&gt;택배를 예약할 수 있어야 한다.&lt;/td&gt;&lt;/tr&gt;&lt;/tbody&gt;&lt;/table&gt;&#xa;&#xa;" id="80gCG8L6xaOorSq-Qai8-1">
          <mxCell style="shape=umlFrame;whiteSpace=wrap;html=1;rounded=0;shadow=0;comic=0;labelBackgroundColor=none;strokeWidth=1;fontFamily=Verdana;fontSize=10;align=center;width=100;height=30;" vertex="1" parent="1">
            <mxGeometry x="-670" y="-310" width="820" height="1170" as="geometry" />
          </mxCell>
        </UserObject>
        <mxCell id="80gCG8L6xaOorSq-Qai8-2" value="사용자" style="shape=umlActor;verticalLabelPosition=bottom;verticalAlign=top;html=1;outlineConnect=0;fontStyle=1" vertex="1" parent="1">
          <mxGeometry x="-850" y="50" width="70" height="110" as="geometry" />
        </mxCell>
        <mxCell id="80gCG8L6xaOorSq-Qai8-5" value="택배 예약" style="ellipse;whiteSpace=wrap;html=1;" vertex="1" parent="1">
          <mxGeometry x="-220" y="320" width="115" height="60" as="geometry" />
        </mxCell>
        <mxCell id="80gCG8L6xaOorSq-Qai8-6" value="통합 조회" style="ellipse;whiteSpace=wrap;html=1;" vertex="1" parent="1">
          <mxGeometry x="-540" y="-230" width="110" height="60" as="geometry" />
        </mxCell>
        <mxCell id="80gCG8L6xaOorSq-Qai8-7" value="" style="endArrow=block;dashed=1;endFill=0;endSize=12;html=1;rounded=0;entryX=0;entryY=0.5;entryDx=0;entryDy=0;" edge="1" parent="1" target="80gCG8L6xaOorSq-Qai8-41">
          <mxGeometry width="160" relative="1" as="geometry">
            <mxPoint x="-430" y="-200.5" as="sourcePoint" />
            <mxPoint x="-320" y="-200.5" as="targetPoint" />
            <Array as="points">
              <mxPoint x="-370" y="-200.5" />
            </Array>
          </mxGeometry>
        </mxCell>
        <mxCell id="80gCG8L6xaOorSq-Qai8-8" value="&amp;lt;&amp;lt;extend&amp;gt;&amp;gt;" style="edgeLabel;html=1;align=center;verticalAlign=middle;resizable=0;points=[];" vertex="1" connectable="0" parent="80gCG8L6xaOorSq-Qai8-7">
          <mxGeometry x="0.0471" y="1" relative="1" as="geometry">
            <mxPoint x="-14" as="offset" />
          </mxGeometry>
        </mxCell>
        <mxCell id="80gCG8L6xaOorSq-Qai8-9" value="지점 및 날짜 선택" style="ellipse;whiteSpace=wrap;html=1;" vertex="1" parent="1">
          <mxGeometry x="-20" y="320" width="110" height="60" as="geometry" />
        </mxCell>
        <mxCell id="80gCG8L6xaOorSq-Qai8-11" value="요금 정산" style="ellipse;whiteSpace=wrap;html=1;" vertex="1" parent="1">
          <mxGeometry x="-10" y="585" width="110" height="50" as="geometry" />
        </mxCell>
        <mxCell id="80gCG8L6xaOorSq-Qai8-12" value="결제" style="ellipse;whiteSpace=wrap;html=1;" vertex="1" parent="1">
          <mxGeometry x="-10" y="710" width="110" height="50" as="geometry" />
        </mxCell>
        <mxCell id="80gCG8L6xaOorSq-Qai8-13" value="" style="endArrow=classic;html=1;rounded=0;entryX=0;entryY=0.5;entryDx=0;entryDy=0;exitX=1;exitY=0.3333333333333333;exitDx=0;exitDy=0;exitPerimeter=0;" edge="1" parent="1" source="80gCG8L6xaOorSq-Qai8-2" target="80gCG8L6xaOorSq-Qai8-6">
          <mxGeometry width="50" height="50" relative="1" as="geometry">
            <mxPoint x="-750" y="110" as="sourcePoint" />
            <mxPoint x="-570" y="180" as="targetPoint" />
          </mxGeometry>
        </mxCell>
        <mxCell id="80gCG8L6xaOorSq-Qai8-14" value="" style="endArrow=classic;html=1;rounded=0;entryX=0;entryY=0.5;entryDx=0;entryDy=0;exitX=1;exitY=0.3333333333333333;exitDx=0;exitDy=0;exitPerimeter=0;" edge="1" parent="1" source="80gCG8L6xaOorSq-Qai8-2" target="80gCG8L6xaOorSq-Qai8-120">
          <mxGeometry width="50" height="50" relative="1" as="geometry">
            <mxPoint x="-740" y="140" as="sourcePoint" />
            <mxPoint x="-230" y="220" as="targetPoint" />
          </mxGeometry>
        </mxCell>
        <mxCell id="80gCG8L6xaOorSq-Qai8-15" value="" style="endArrow=classic;html=1;rounded=0;entryX=0;entryY=0.5;entryDx=0;entryDy=0;exitX=1;exitY=0.3333333333333333;exitDx=0;exitDy=0;exitPerimeter=0;" edge="1" parent="1" source="80gCG8L6xaOorSq-Qai8-2" target="80gCG8L6xaOorSq-Qai8-100">
          <mxGeometry width="50" height="50" relative="1" as="geometry">
            <mxPoint x="-760" y="70" as="sourcePoint" />
            <mxPoint x="-750" y="653.33" as="targetPoint" />
          </mxGeometry>
        </mxCell>
        <mxCell id="80gCG8L6xaOorSq-Qai8-16" value="" style="endArrow=block;dashed=1;endFill=0;endSize=12;html=1;rounded=0;exitX=1;exitY=0.5;exitDx=0;exitDy=0;entryX=0;entryY=0.5;entryDx=0;entryDy=0;" edge="1" parent="1" source="80gCG8L6xaOorSq-Qai8-5" target="80gCG8L6xaOorSq-Qai8-9">
          <mxGeometry width="160" relative="1" as="geometry">
            <mxPoint x="60" y="460" as="sourcePoint" />
            <mxPoint x="220" y="460" as="targetPoint" />
          </mxGeometry>
        </mxCell>
        <mxCell id="80gCG8L6xaOorSq-Qai8-17" value="&amp;lt;&amp;lt;include&amp;gt;&amp;gt;" style="edgeLabel;html=1;align=center;verticalAlign=middle;resizable=0;points=[];" vertex="1" connectable="0" parent="80gCG8L6xaOorSq-Qai8-16">
          <mxGeometry x="-0.3824" y="3" relative="1" as="geometry">
            <mxPoint as="offset" />
          </mxGeometry>
        </mxCell>
        <mxCell id="80gCG8L6xaOorSq-Qai8-22" value="" style="endArrow=block;dashed=1;endFill=0;endSize=12;html=1;rounded=0;exitX=0.611;exitY=1.046;exitDx=0;exitDy=0;exitPerimeter=0;" edge="1" parent="1" source="80gCG8L6xaOorSq-Qai8-9" target="80gCG8L6xaOorSq-Qai8-29">
          <mxGeometry width="160" relative="1" as="geometry">
            <mxPoint x="60" y="490" as="sourcePoint" />
            <mxPoint x="130" y="450" as="targetPoint" />
          </mxGeometry>
        </mxCell>
        <mxCell id="80gCG8L6xaOorSq-Qai8-23" value="&amp;lt;&amp;lt;include&amp;gt;&amp;gt;" style="edgeLabel;html=1;align=center;verticalAlign=middle;resizable=0;points=[];" vertex="1" connectable="0" parent="80gCG8L6xaOorSq-Qai8-22">
          <mxGeometry x="-0.1525" y="2" relative="1" as="geometry">
            <mxPoint as="offset" />
          </mxGeometry>
        </mxCell>
        <mxCell id="80gCG8L6xaOorSq-Qai8-29" value="얼굴 인식" style="ellipse;whiteSpace=wrap;html=1;" vertex="1" parent="1">
          <mxGeometry x="-10" y="455" width="115" height="60" as="geometry" />
        </mxCell>
        <mxCell id="80gCG8L6xaOorSq-Qai8-32" value="" style="endArrow=block;dashed=1;endFill=0;endSize=12;html=1;rounded=0;entryX=0.5;entryY=0;entryDx=0;entryDy=0;exitX=0.5;exitY=1;exitDx=0;exitDy=0;" edge="1" parent="1" source="80gCG8L6xaOorSq-Qai8-29" target="80gCG8L6xaOorSq-Qai8-11">
          <mxGeometry width="160" relative="1" as="geometry">
            <mxPoint x="140" y="510" as="sourcePoint" />
            <mxPoint x="29.620000000000005" y="610" as="targetPoint" />
          </mxGeometry>
        </mxCell>
        <mxCell id="80gCG8L6xaOorSq-Qai8-33" value="&amp;lt;&amp;lt;include&amp;gt;&amp;gt;" style="edgeLabel;html=1;align=center;verticalAlign=middle;resizable=0;points=[];" connectable="0" vertex="1" parent="80gCG8L6xaOorSq-Qai8-32">
          <mxGeometry x="-0.3886" y="-1" relative="1" as="geometry">
            <mxPoint as="offset" />
          </mxGeometry>
        </mxCell>
        <mxCell id="80gCG8L6xaOorSq-Qai8-36" value="보관함 예약" style="ellipse;whiteSpace=wrap;html=1;" vertex="1" parent="1">
          <mxGeometry x="-413.00000000000006" y="405" width="90" height="50" as="geometry" />
        </mxCell>
        <mxCell id="80gCG8L6xaOorSq-Qai8-37" value="얼굴등록" style="ellipse;whiteSpace=wrap;html=1;" vertex="1" parent="1">
          <mxGeometry x="-200" y="710" width="90" height="50" as="geometry" />
        </mxCell>
        <mxCell id="80gCG8L6xaOorSq-Qai8-38" value="include" style="endArrow=open;endSize=12;dashed=1;html=1;rounded=0;entryX=0.429;entryY=-0.06;entryDx=0;entryDy=0;entryPerimeter=0;" edge="1" parent="1" source="80gCG8L6xaOorSq-Qai8-36" target="80gCG8L6xaOorSq-Qai8-44">
          <mxGeometry width="160" relative="1" as="geometry">
            <mxPoint x="-403.1801948466052" y="579.8223304703363" as="sourcePoint" />
            <mxPoint x="-510" y="550" as="targetPoint" />
          </mxGeometry>
        </mxCell>
        <mxCell id="80gCG8L6xaOorSq-Qai8-39" value="보관함 선택" style="ellipse;whiteSpace=wrap;html=1;" vertex="1" parent="1">
          <mxGeometry x="-195" y="530" width="90" height="50" as="geometry" />
        </mxCell>
        <mxCell id="80gCG8L6xaOorSq-Qai8-41" value="예약 확인" style="ellipse;whiteSpace=wrap;html=1;" vertex="1" parent="1">
          <mxGeometry x="-323" y="-235" width="100" height="65" as="geometry" />
        </mxCell>
        <mxCell id="80gCG8L6xaOorSq-Qai8-42" value="열기" style="ellipse;whiteSpace=wrap;html=1;" vertex="1" parent="1">
          <mxGeometry x="-130" y="-287.50000000000006" width="100" height="55" as="geometry" />
        </mxCell>
        <mxCell id="80gCG8L6xaOorSq-Qai8-43" value="이용 완료" style="ellipse;whiteSpace=wrap;html=1;" vertex="1" parent="1">
          <mxGeometry x="-130" y="-160" width="100" height="55" as="geometry" />
        </mxCell>
        <mxCell id="80gCG8L6xaOorSq-Qai8-44" value="날짜,지점 선택" style="ellipse;whiteSpace=wrap;html=1;" vertex="1" parent="1">
          <mxGeometry x="-413" y="535" width="110" height="50" as="geometry" />
        </mxCell>
        <mxCell id="80gCG8L6xaOorSq-Qai8-45" value="Extends" style="endArrow=block;endSize=16;endFill=0;html=1;rounded=0;exitX=1;exitY=0;exitDx=0;exitDy=0;entryX=0;entryY=0.5;entryDx=0;entryDy=0;" edge="1" parent="1" source="80gCG8L6xaOorSq-Qai8-41" target="80gCG8L6xaOorSq-Qai8-42">
          <mxGeometry width="160" relative="1" as="geometry">
            <mxPoint x="-113" y="-245.09" as="sourcePoint" />
            <mxPoint x="47" y="-190.09" as="targetPoint" />
          </mxGeometry>
        </mxCell>
        <mxCell id="80gCG8L6xaOorSq-Qai8-46" value="Extends" style="endArrow=block;endSize=16;endFill=0;html=1;rounded=0;exitX=1;exitY=1;exitDx=0;exitDy=0;entryX=0;entryY=0.5;entryDx=0;entryDy=0;" edge="1" parent="1" source="80gCG8L6xaOorSq-Qai8-41" target="80gCG8L6xaOorSq-Qai8-43">
          <mxGeometry width="160" relative="1" as="geometry">
            <mxPoint x="-113" y="-245.09" as="sourcePoint" />
            <mxPoint x="-151.5" y="-134.90500000000006" as="targetPoint" />
          </mxGeometry>
        </mxCell>
        <mxCell id="80gCG8L6xaOorSq-Qai8-47" value="include" style="endArrow=open;endSize=12;dashed=1;html=1;rounded=0;entryX=0;entryY=0.5;entryDx=0;entryDy=0;" edge="1" parent="1" source="80gCG8L6xaOorSq-Qai8-44" target="80gCG8L6xaOorSq-Qai8-39">
          <mxGeometry width="160" relative="1" as="geometry">
            <mxPoint x="-470" y="600" as="sourcePoint" />
            <mxPoint x="-200" y="550" as="targetPoint" />
          </mxGeometry>
        </mxCell>
        <mxCell id="80gCG8L6xaOorSq-Qai8-48" value="include" style="endArrow=open;endSize=12;dashed=1;html=1;rounded=0;exitX=0.5;exitY=1;exitDx=0;exitDy=0;" edge="1" parent="1" source="80gCG8L6xaOorSq-Qai8-39">
          <mxGeometry x="0.0094" width="160" relative="1" as="geometry">
            <mxPoint x="-229" y="635" as="sourcePoint" />
            <mxPoint x="-150" y="710" as="targetPoint" />
            <mxPoint as="offset" />
          </mxGeometry>
        </mxCell>
        <mxCell id="80gCG8L6xaOorSq-Qai8-51" value="field" style="shape=umlFrame;whiteSpace=wrap;html=1;pointerEvents=0;width=130;height=20;" vertex="1" parent="1">
          <mxGeometry x="330" y="-300" width="440" height="470" as="geometry" />
        </mxCell>
        <mxCell id="80gCG8L6xaOorSq-Qai8-52" value="사용자" style="shape=umlActor;verticalLabelPosition=bottom;verticalAlign=top;html=1;" vertex="1" parent="1">
          <mxGeometry x="240" y="-220" width="40" height="60" as="geometry" />
        </mxCell>
        <mxCell id="80gCG8L6xaOorSq-Qai8-53" value="얼굴 인식" style="ellipse;whiteSpace=wrap;html=1;" vertex="1" parent="1">
          <mxGeometry x="360" y="-207.5" width="90" height="35" as="geometry" />
        </mxCell>
        <mxCell id="80gCG8L6xaOorSq-Qai8-54" value="인식 불가 팝업창" style="ellipse;whiteSpace=wrap;html=1;" vertex="1" parent="1">
          <mxGeometry x="570" y="-207.5" width="100" height="40" as="geometry" />
        </mxCell>
        <mxCell id="80gCG8L6xaOorSq-Qai8-55" value="문 열림" style="ellipse;whiteSpace=wrap;html=1;" vertex="1" parent="1">
          <mxGeometry x="557.5" y="-100" width="100" height="40" as="geometry" />
        </mxCell>
        <mxCell id="80gCG8L6xaOorSq-Qai8-56" value="문 잠김" style="ellipse;whiteSpace=wrap;html=1;" vertex="1" parent="1">
          <mxGeometry x="557.5" y="100" width="100" height="40" as="geometry" />
        </mxCell>
        <mxCell id="80gCG8L6xaOorSq-Qai8-57" value="회수" style="ellipse;whiteSpace=wrap;html=1;" vertex="1" parent="1">
          <mxGeometry x="622.5" y="5" width="100" height="40" as="geometry" />
        </mxCell>
        <mxCell id="80gCG8L6xaOorSq-Qai8-58" value="보관 위치 안내" style="ellipse;whiteSpace=wrap;html=1;" vertex="1" parent="1">
          <mxGeometry x="355" y="-100" width="100" height="40" as="geometry" />
        </mxCell>
        <mxCell id="80gCG8L6xaOorSq-Qai8-59" value="" style="endArrow=block;dashed=1;endFill=0;endSize=12;html=1;rounded=0;exitX=1;exitY=0.5;exitDx=0;exitDy=0;entryX=0;entryY=0.5;entryDx=0;entryDy=0;" edge="1" parent="1" source="80gCG8L6xaOorSq-Qai8-53" target="80gCG8L6xaOorSq-Qai8-54">
          <mxGeometry width="160" relative="1" as="geometry">
            <mxPoint x="430" y="-60" as="sourcePoint" />
            <mxPoint x="590" y="-60" as="targetPoint" />
          </mxGeometry>
        </mxCell>
        <mxCell id="80gCG8L6xaOorSq-Qai8-60" value="&amp;lt;&amp;lt;include&amp;gt;&amp;gt;" style="edgeLabel;html=1;align=center;verticalAlign=middle;resizable=0;points=[];" connectable="0" vertex="1" parent="80gCG8L6xaOorSq-Qai8-59">
          <mxGeometry x="-0.418" y="-2" relative="1" as="geometry">
            <mxPoint x="15" as="offset" />
          </mxGeometry>
        </mxCell>
        <mxCell id="80gCG8L6xaOorSq-Qai8-61" value="&amp;lt;&amp;lt;return&amp;gt;&amp;gt;" style="html=1;verticalAlign=bottom;endArrow=open;dashed=1;endSize=8;curved=0;rounded=0;entryX=0.949;entryY=0.162;entryDx=0;entryDy=0;entryPerimeter=0;exitX=0.083;exitY=0.157;exitDx=0;exitDy=0;exitPerimeter=0;" edge="1" parent="1" source="80gCG8L6xaOorSq-Qai8-54" target="80gCG8L6xaOorSq-Qai8-53">
          <mxGeometry x="-0.0044" relative="1" as="geometry">
            <mxPoint x="580" y="-206" as="sourcePoint" />
            <mxPoint x="470" y="-60" as="targetPoint" />
            <mxPoint as="offset" />
          </mxGeometry>
        </mxCell>
        <mxCell id="80gCG8L6xaOorSq-Qai8-62" value="" style="endArrow=block;dashed=1;endFill=0;endSize=12;html=1;rounded=0;exitX=0.5;exitY=1;exitDx=0;exitDy=0;entryX=0.5;entryY=0;entryDx=0;entryDy=0;" edge="1" parent="1" source="80gCG8L6xaOorSq-Qai8-53" target="80gCG8L6xaOorSq-Qai8-58">
          <mxGeometry width="160" relative="1" as="geometry">
            <mxPoint x="460" y="-180" as="sourcePoint" />
            <mxPoint x="580" y="-177" as="targetPoint" />
          </mxGeometry>
        </mxCell>
        <mxCell id="80gCG8L6xaOorSq-Qai8-63" value="&amp;lt;&amp;lt;include&amp;gt;&amp;gt;" style="edgeLabel;html=1;align=center;verticalAlign=middle;resizable=0;points=[];" connectable="0" vertex="1" parent="80gCG8L6xaOorSq-Qai8-62">
          <mxGeometry x="-0.418" y="-2" relative="1" as="geometry">
            <mxPoint x="15" as="offset" />
          </mxGeometry>
        </mxCell>
        <mxCell id="80gCG8L6xaOorSq-Qai8-64" value="" style="endArrow=block;dashed=1;endFill=0;endSize=12;html=1;rounded=0;exitX=1;exitY=0.5;exitDx=0;exitDy=0;entryX=0;entryY=0.5;entryDx=0;entryDy=0;" edge="1" parent="1" source="80gCG8L6xaOorSq-Qai8-58" target="80gCG8L6xaOorSq-Qai8-55">
          <mxGeometry width="160" relative="1" as="geometry">
            <mxPoint x="470" y="-170" as="sourcePoint" />
            <mxPoint x="590" y="-167" as="targetPoint" />
          </mxGeometry>
        </mxCell>
        <mxCell id="80gCG8L6xaOorSq-Qai8-65" value="&amp;lt;&amp;lt;include&amp;gt;&amp;gt;" style="edgeLabel;html=1;align=center;verticalAlign=middle;resizable=0;points=[];" connectable="0" vertex="1" parent="80gCG8L6xaOorSq-Qai8-64">
          <mxGeometry x="-0.418" y="-2" relative="1" as="geometry">
            <mxPoint x="15" as="offset" />
          </mxGeometry>
        </mxCell>
        <mxCell id="80gCG8L6xaOorSq-Qai8-66" value="" style="endArrow=block;dashed=1;endFill=0;endSize=12;html=1;rounded=0;entryX=0.666;entryY=0.071;entryDx=0;entryDy=0;exitX=0.609;exitY=1.029;exitDx=0;exitDy=0;entryPerimeter=0;exitPerimeter=0;" edge="1" parent="1" source="80gCG8L6xaOorSq-Qai8-55" target="80gCG8L6xaOorSq-Qai8-57">
          <mxGeometry width="160" relative="1" as="geometry">
            <mxPoint x="612.5" y="-50" as="sourcePoint" />
            <mxPoint x="600" y="-157" as="targetPoint" />
          </mxGeometry>
        </mxCell>
        <mxCell id="80gCG8L6xaOorSq-Qai8-67" value="&amp;lt;&amp;lt;include&amp;gt;&amp;gt;" style="edgeLabel;html=1;align=center;verticalAlign=middle;resizable=0;points=[];" connectable="0" vertex="1" parent="80gCG8L6xaOorSq-Qai8-66">
          <mxGeometry x="-0.418" y="-2" relative="1" as="geometry">
            <mxPoint x="15" as="offset" />
          </mxGeometry>
        </mxCell>
        <mxCell id="80gCG8L6xaOorSq-Qai8-68" value="" style="endArrow=block;dashed=1;endFill=0;endSize=12;html=1;rounded=0;exitX=0.5;exitY=1;exitDx=0;exitDy=0;entryX=1;entryY=0;entryDx=0;entryDy=0;" edge="1" parent="1" source="80gCG8L6xaOorSq-Qai8-57" target="80gCG8L6xaOorSq-Qai8-56">
          <mxGeometry width="160" relative="1" as="geometry">
            <mxPoint x="490" y="-150" as="sourcePoint" />
            <mxPoint x="610" y="-147" as="targetPoint" />
          </mxGeometry>
        </mxCell>
        <mxCell id="80gCG8L6xaOorSq-Qai8-69" value="&amp;lt;&amp;lt;include&amp;gt;&amp;gt;" style="edgeLabel;html=1;align=center;verticalAlign=middle;resizable=0;points=[];" connectable="0" vertex="1" parent="80gCG8L6xaOorSq-Qai8-68">
          <mxGeometry x="-0.418" y="-2" relative="1" as="geometry">
            <mxPoint x="5" y="7" as="offset" />
          </mxGeometry>
        </mxCell>
        <mxCell id="80gCG8L6xaOorSq-Qai8-70" value="" style="endArrow=classic;html=1;rounded=0;exitX=1;exitY=0.3333333333333333;exitDx=0;exitDy=0;exitPerimeter=0;entryX=0;entryY=0.5;entryDx=0;entryDy=0;" edge="1" parent="1" source="80gCG8L6xaOorSq-Qai8-52" target="80gCG8L6xaOorSq-Qai8-53">
          <mxGeometry width="50" height="50" relative="1" as="geometry">
            <mxPoint x="580" y="20" as="sourcePoint" />
            <mxPoint x="630" y="-30" as="targetPoint" />
          </mxGeometry>
        </mxCell>
        <mxCell id="80gCG8L6xaOorSq-Qai8-91" value="비회원" style="shape=umlActor;verticalLabelPosition=bottom;verticalAlign=top;html=1;" vertex="1" parent="1">
          <mxGeometry x="-820" y="690" width="75" height="100" as="geometry" />
        </mxCell>
        <mxCell id="80gCG8L6xaOorSq-Qai8-93" value="회원가입" style="ellipse;whiteSpace=wrap;html=1;" vertex="1" parent="1">
          <mxGeometry x="-618" y="710" width="130" height="40" as="geometry" />
        </mxCell>
        <mxCell id="80gCG8L6xaOorSq-Qai8-94" value="ID 중복 검사" style="ellipse;whiteSpace=wrap;html=1;" vertex="1" parent="1">
          <mxGeometry x="-408" y="670" width="105" height="40" as="geometry" />
        </mxCell>
        <mxCell id="80gCG8L6xaOorSq-Qai8-95" value="PW 일치 여부" style="ellipse;whiteSpace=wrap;html=1;" vertex="1" parent="1">
          <mxGeometry x="-408" y="740" width="105" height="40" as="geometry" />
        </mxCell>
        <mxCell id="80gCG8L6xaOorSq-Qai8-96" value="&amp;lt;&amp;lt;include&amp;gt;&amp;gt;" style="html=1;verticalAlign=bottom;endArrow=open;dashed=1;endSize=8;curved=0;rounded=0;exitX=1;exitY=0.5;exitDx=0;exitDy=0;entryX=0;entryY=0.5;entryDx=0;entryDy=0;" edge="1" parent="1" source="80gCG8L6xaOorSq-Qai8-93" target="80gCG8L6xaOorSq-Qai8-94">
          <mxGeometry x="-0.2" y="13" relative="1" as="geometry">
            <mxPoint x="-388" y="850" as="sourcePoint" />
            <mxPoint x="-468" y="850" as="targetPoint" />
            <mxPoint as="offset" />
          </mxGeometry>
        </mxCell>
        <mxCell id="80gCG8L6xaOorSq-Qai8-97" value="&amp;lt;&amp;lt;include&amp;gt;&amp;gt;" style="html=1;verticalAlign=bottom;endArrow=open;dashed=1;endSize=8;curved=0;rounded=0;exitX=1;exitY=0.5;exitDx=0;exitDy=0;entryX=0;entryY=0.5;entryDx=0;entryDy=0;" edge="1" parent="1" source="80gCG8L6xaOorSq-Qai8-93">
          <mxGeometry x="-0.0137" y="-27" relative="1" as="geometry">
            <mxPoint x="-488" y="800" as="sourcePoint" />
            <mxPoint x="-408" y="760" as="targetPoint" />
            <mxPoint as="offset" />
          </mxGeometry>
        </mxCell>
        <mxCell id="80gCG8L6xaOorSq-Qai8-100" value="회원 정보 수정" style="ellipse;whiteSpace=wrap;html=1;" vertex="1" parent="1">
          <mxGeometry x="-525" y="70" width="130" height="40" as="geometry" />
        </mxCell>
        <mxCell id="80gCG8L6xaOorSq-Qai8-102" value="ID 찾기" style="ellipse;whiteSpace=wrap;html=1;" vertex="1" parent="1">
          <mxGeometry x="-525" y="180" width="130" height="40" as="geometry" />
        </mxCell>
        <mxCell id="80gCG8L6xaOorSq-Qai8-103" value="PW 재설정" style="ellipse;whiteSpace=wrap;html=1;" vertex="1" parent="1">
          <mxGeometry x="-295" y="10" width="105" height="40" as="geometry" />
        </mxCell>
        <mxCell id="80gCG8L6xaOorSq-Qai8-104" value="&amp;lt;&amp;lt;extend&amp;gt;&amp;gt;" style="html=1;verticalAlign=bottom;endArrow=open;dashed=1;endSize=8;curved=0;rounded=0;exitX=1;exitY=0.5;exitDx=0;exitDy=0;entryX=0;entryY=0.5;entryDx=0;entryDy=0;" edge="1" parent="1" source="80gCG8L6xaOorSq-Qai8-100" target="80gCG8L6xaOorSq-Qai8-103">
          <mxGeometry y="-10" relative="1" as="geometry">
            <mxPoint x="-385" y="100" as="sourcePoint" />
            <mxPoint x="-305" y="40" as="targetPoint" />
            <mxPoint as="offset" />
          </mxGeometry>
        </mxCell>
        <mxCell id="80gCG8L6xaOorSq-Qai8-105" value="email 변경" style="ellipse;whiteSpace=wrap;html=1;" vertex="1" parent="1">
          <mxGeometry x="-295" y="70" width="105" height="40" as="geometry" />
        </mxCell>
        <mxCell id="80gCG8L6xaOorSq-Qai8-106" value="&amp;lt;&amp;lt;extend&amp;gt;&amp;gt;" style="html=1;verticalAlign=bottom;endArrow=open;dashed=1;endSize=8;curved=0;rounded=0;entryX=0;entryY=0.5;entryDx=0;entryDy=0;" edge="1" parent="1" target="80gCG8L6xaOorSq-Qai8-105">
          <mxGeometry y="-10" relative="1" as="geometry">
            <mxPoint x="-395" y="90" as="sourcePoint" />
            <mxPoint x="-305" y="90" as="targetPoint" />
            <mxPoint as="offset" />
          </mxGeometry>
        </mxCell>
        <mxCell id="80gCG8L6xaOorSq-Qai8-107" value="연락처 변경" style="ellipse;whiteSpace=wrap;html=1;" vertex="1" parent="1">
          <mxGeometry x="-295" y="130" width="105" height="40" as="geometry" />
        </mxCell>
        <mxCell id="80gCG8L6xaOorSq-Qai8-108" value="&amp;lt;&amp;lt;extend&amp;gt;&amp;gt;" style="html=1;verticalAlign=bottom;endArrow=open;dashed=1;endSize=8;curved=0;rounded=0;entryX=0;entryY=0.5;entryDx=0;entryDy=0;exitX=1;exitY=0.5;exitDx=0;exitDy=0;" edge="1" parent="1" source="80gCG8L6xaOorSq-Qai8-100" target="80gCG8L6xaOorSq-Qai8-107">
          <mxGeometry y="-10" relative="1" as="geometry">
            <mxPoint x="-395" y="140" as="sourcePoint" />
            <mxPoint x="-305" y="140" as="targetPoint" />
            <mxPoint as="offset" />
          </mxGeometry>
        </mxCell>
        <mxCell id="80gCG8L6xaOorSq-Qai8-110" value="로그인" style="ellipse;whiteSpace=wrap;html=1;" vertex="1" parent="1">
          <mxGeometry x="-525" y="-30" width="130" height="40" as="geometry" />
        </mxCell>
        <mxCell id="80gCG8L6xaOorSq-Qai8-112" value="&amp;lt;&amp;lt;include&amp;gt;&amp;gt;" style="html=1;verticalAlign=bottom;endArrow=open;dashed=1;endSize=8;curved=0;rounded=0;entryX=0.5;entryY=1;entryDx=0;entryDy=0;exitX=0.5;exitY=0;exitDx=0;exitDy=0;" edge="1" parent="1" source="80gCG8L6xaOorSq-Qai8-100" target="80gCG8L6xaOorSq-Qai8-110">
          <mxGeometry x="-0.6667" y="-20" relative="1" as="geometry">
            <mxPoint x="-465" y="70" as="sourcePoint" />
            <mxPoint x="-385" y="30" as="targetPoint" />
            <mxPoint y="-1" as="offset" />
          </mxGeometry>
        </mxCell>
        <mxCell id="80gCG8L6xaOorSq-Qai8-113" value="물건 보관" style="ellipse;whiteSpace=wrap;html=1;" vertex="1" parent="1">
          <mxGeometry x="467.5" y="10" width="90" height="40" as="geometry" />
        </mxCell>
        <mxCell id="80gCG8L6xaOorSq-Qai8-115" value="" style="endArrow=block;dashed=1;endFill=0;endSize=12;html=1;rounded=0;entryX=0.771;entryY=0.103;entryDx=0;entryDy=0;exitX=0.317;exitY=1.029;exitDx=0;exitDy=0;entryPerimeter=0;exitPerimeter=0;" edge="1" parent="1" source="80gCG8L6xaOorSq-Qai8-55" target="80gCG8L6xaOorSq-Qai8-113">
          <mxGeometry width="160" relative="1" as="geometry">
            <mxPoint x="628.5" y="-49" as="sourcePoint" />
            <mxPoint x="629.5" y="23" as="targetPoint" />
          </mxGeometry>
        </mxCell>
        <mxCell id="80gCG8L6xaOorSq-Qai8-116" value="&amp;lt;&amp;lt;include&amp;gt;&amp;gt;" style="edgeLabel;html=1;align=center;verticalAlign=middle;resizable=0;points=[];" connectable="0" vertex="1" parent="80gCG8L6xaOorSq-Qai8-115">
          <mxGeometry x="-0.418" y="-2" relative="1" as="geometry">
            <mxPoint x="15" as="offset" />
          </mxGeometry>
        </mxCell>
        <mxCell id="80gCG8L6xaOorSq-Qai8-117" value="" style="endArrow=block;dashed=1;endFill=0;endSize=12;html=1;rounded=0;entryX=0;entryY=0;entryDx=0;entryDy=0;exitX=0.757;exitY=0.98;exitDx=0;exitDy=0;exitPerimeter=0;" edge="1" parent="1" source="80gCG8L6xaOorSq-Qai8-113" target="80gCG8L6xaOorSq-Qai8-56">
          <mxGeometry width="160" relative="1" as="geometry">
            <mxPoint x="638.5" y="-39" as="sourcePoint" />
            <mxPoint x="639.5" y="33" as="targetPoint" />
          </mxGeometry>
        </mxCell>
        <mxCell id="80gCG8L6xaOorSq-Qai8-118" value="&amp;lt;&amp;lt;include&amp;gt;&amp;gt;" style="edgeLabel;html=1;align=center;verticalAlign=middle;resizable=0;points=[];" connectable="0" vertex="1" parent="80gCG8L6xaOorSq-Qai8-117">
          <mxGeometry x="-0.418" y="-2" relative="1" as="geometry">
            <mxPoint x="15" as="offset" />
          </mxGeometry>
        </mxCell>
        <mxCell id="80gCG8L6xaOorSq-Qai8-120" value="예약" style="ellipse;whiteSpace=wrap;html=1;" vertex="1" parent="1">
          <mxGeometry x="-500" y="320" width="95" height="55" as="geometry" />
        </mxCell>
        <mxCell id="80gCG8L6xaOorSq-Qai8-121" value="" style="endArrow=block;dashed=1;endFill=0;endSize=12;html=1;rounded=0;exitX=1;exitY=0.5;exitDx=0;exitDy=0;entryX=0;entryY=0.5;entryDx=0;entryDy=0;" edge="1" parent="1" source="80gCG8L6xaOorSq-Qai8-120" target="80gCG8L6xaOorSq-Qai8-5">
          <mxGeometry width="160" relative="1" as="geometry">
            <mxPoint x="-155" y="360" as="sourcePoint" />
            <mxPoint x="-280" y="350" as="targetPoint" />
          </mxGeometry>
        </mxCell>
        <mxCell id="80gCG8L6xaOorSq-Qai8-122" value="&amp;lt;&amp;lt;include&amp;gt;&amp;gt;" style="edgeLabel;html=1;align=center;verticalAlign=middle;resizable=0;points=[];" connectable="0" vertex="1" parent="80gCG8L6xaOorSq-Qai8-121">
          <mxGeometry x="-0.3824" y="3" relative="1" as="geometry">
            <mxPoint x="16" y="2" as="offset" />
          </mxGeometry>
        </mxCell>
        <mxCell id="80gCG8L6xaOorSq-Qai8-123" value="" style="endArrow=block;dashed=1;endFill=0;endSize=12;html=1;rounded=0;entryX=0.5;entryY=0;entryDx=0;entryDy=0;exitX=0.716;exitY=0.964;exitDx=0;exitDy=0;exitPerimeter=0;" edge="1" parent="1" source="80gCG8L6xaOorSq-Qai8-120" target="80gCG8L6xaOorSq-Qai8-36">
          <mxGeometry width="160" relative="1" as="geometry">
            <mxPoint x="-145" y="370" as="sourcePoint" />
            <mxPoint x="65" y="370" as="targetPoint" />
          </mxGeometry>
        </mxCell>
        <mxCell id="80gCG8L6xaOorSq-Qai8-124" value="&amp;lt;&amp;lt;include&amp;gt;&amp;gt;" style="edgeLabel;html=1;align=center;verticalAlign=middle;resizable=0;points=[];" vertex="1" connectable="0" parent="80gCG8L6xaOorSq-Qai8-123">
          <mxGeometry x="-0.3824" y="3" relative="1" as="geometry">
            <mxPoint x="-3" y="10" as="offset" />
          </mxGeometry>
        </mxCell>
        <mxCell id="80gCG8L6xaOorSq-Qai8-129" value="" style="endArrow=open;endFill=1;endSize=12;html=1;rounded=0;exitX=1;exitY=0.3333333333333333;exitDx=0;exitDy=0;exitPerimeter=0;entryX=0;entryY=0.5;entryDx=0;entryDy=0;" edge="1" parent="1" source="80gCG8L6xaOorSq-Qai8-2" target="80gCG8L6xaOorSq-Qai8-102">
          <mxGeometry width="160" relative="1" as="geometry">
            <mxPoint x="-430" y="170" as="sourcePoint" />
            <mxPoint x="-270" y="170" as="targetPoint" />
          </mxGeometry>
        </mxCell>
        <mxCell id="80gCG8L6xaOorSq-Qai8-130" value="" style="endArrow=open;endFill=1;endSize=12;html=1;rounded=0;entryX=0;entryY=0.5;entryDx=0;entryDy=0;exitX=1;exitY=0.3333333333333333;exitDx=0;exitDy=0;exitPerimeter=0;" edge="1" parent="1" source="80gCG8L6xaOorSq-Qai8-2" target="80gCG8L6xaOorSq-Qai8-110">
          <mxGeometry width="160" relative="1" as="geometry">
            <mxPoint x="-760" y="60" as="sourcePoint" />
            <mxPoint x="-270" y="170" as="targetPoint" />
          </mxGeometry>
        </mxCell>
        <mxCell id="80gCG8L6xaOorSq-Qai8-133" value="" style="endArrow=open;endFill=1;endSize=12;html=1;rounded=0;exitX=1;exitY=0.3333333333333333;exitDx=0;exitDy=0;exitPerimeter=0;entryX=0;entryY=0.5;entryDx=0;entryDy=0;" edge="1" parent="1" source="80gCG8L6xaOorSq-Qai8-91" target="80gCG8L6xaOorSq-Qai8-93">
          <mxGeometry width="160" relative="1" as="geometry">
            <mxPoint x="-690" y="680" as="sourcePoint" />
            <mxPoint x="-530" y="680" as="targetPoint" />
          </mxGeometry>
        </mxCell>
        <mxCell id="80gCG8L6xaOorSq-Qai8-139" style="edgeStyle=orthogonalEdgeStyle;rounded=0;orthogonalLoop=1;jettySize=auto;html=1;exitX=0.5;exitY=1;exitDx=0;exitDy=0;" edge="1" parent="1" source="80gCG8L6xaOorSq-Qai8-39" target="80gCG8L6xaOorSq-Qai8-39">
          <mxGeometry relative="1" as="geometry" />
        </mxCell>
        <mxCell id="80gCG8L6xaOorSq-Qai8-140" value="&amp;lt;&amp;lt;include&amp;gt;&amp;gt;" style="html=1;verticalAlign=bottom;endArrow=open;dashed=1;endSize=8;curved=0;rounded=0;entryX=0.5;entryY=0;entryDx=0;entryDy=0;exitX=0.5;exitY=1;exitDx=0;exitDy=0;" edge="1" parent="1" source="80gCG8L6xaOorSq-Qai8-6" target="80gCG8L6xaOorSq-Qai8-110">
          <mxGeometry x="-0.068" y="-27" relative="1" as="geometry">
            <mxPoint x="-450" y="80" as="sourcePoint" />
            <mxPoint x="-450" y="20" as="targetPoint" />
            <mxPoint as="offset" />
          </mxGeometry>
        </mxCell>
        <mxCell id="gnb8hKjuS6fvdkscE8le-1" value="" style="endArrow=classic;html=1;rounded=0;exitX=1;exitY=0.5;exitDx=0;exitDy=0;entryX=0;entryY=0.5;entryDx=0;entryDy=0;" edge="1" parent="1" source="80gCG8L6xaOorSq-Qai8-37" target="80gCG8L6xaOorSq-Qai8-12">
          <mxGeometry width="50" height="50" relative="1" as="geometry">
            <mxPoint x="-50" y="470" as="sourcePoint" />
            <mxPoint y="420" as="targetPoint" />
          </mxGeometry>
        </mxCell>
        <mxCell id="gnb8hKjuS6fvdkscE8le-2" value="" style="endArrow=classic;html=1;rounded=0;entryX=0.5;entryY=0;entryDx=0;entryDy=0;" edge="1" parent="1" source="80gCG8L6xaOorSq-Qai8-11" target="80gCG8L6xaOorSq-Qai8-12">
          <mxGeometry width="50" height="50" relative="1" as="geometry">
            <mxPoint x="-50" y="470" as="sourcePoint" />
            <mxPoint x="50" y="700" as="targetPoint" />
          </mxGeometry>
        </mxCell>
      </root>
    </mxGraphModel>
  </diagram>
</mxfile>
